<?xml version="1.0" encoding="utf-8"?>
<!-- Generator: Adobe Illustrator 16.0.0, SVG Export Plug-In . SVG Version: 6.00 Build 0)  -->
<!DOCTYPE svg PUBLIC "-//W3C//DTD SVG 1.1//EN" "http://www.w3.org/Graphics/SVG/1.1/DTD/svg11.dtd">
<svg version="1.1" id="图层_1" xmlns="http://www.w3.org/2000/svg" xmlns:xlink="http://www.w3.org/1999/xlink" x="0px" y="0px"
	 width="1920px" height="900px" viewBox="0 0 1920 900" enable-background="new 0 0 1920 900" xml:space="preserve">
<g>
	<defs>
		<rect id="SVGID_1_" width="1920" height="909"/>
	</defs>
	<clipPath id="SVGID_2_">
		<use xlink:href="#SVGID_1_"  overflow="visible"/>
	</clipPath>
	<polygon clip-path="url(#SVGID_2_)" fill="#404198" points="1835.737,1040.579 1477.815,1096.974 1689.923,1157.963 	"/>
	<polygon clip-path="url(#SVGID_2_)" fill="#4C4B9D" points="2596.793,1120.301 1835.737,1040.579 2080.411,1261.37 	"/>
	<polygon clip-path="url(#SVGID_2_)" fill="#2E3C8F" points="475.663,1026.049 66.211,1055.723 290.921,1156.711 	"/>
	<polygon clip-path="url(#SVGID_2_)" fill="#24378A" points="66.211,1055.723 42.629,1093.384 290.921,1156.711 	"/>
	<polygon clip-path="url(#SVGID_2_)" fill="#4A4A9C" points="1835.737,1040.579 1689.923,1157.963 2080.411,1261.37 	"/>
	<polygon clip-path="url(#SVGID_2_)" fill="#2F3B8F" points="42.629,1093.384 73.447,1135.193 290.921,1156.711 	"/>
	<polygon clip-path="url(#SVGID_2_)" fill="#1D347F" points="73.447,1135.193 42.629,1093.384 -76.9,1164.864 	"/>
	<polygon clip-path="url(#SVGID_2_)" fill="#374097" points="878.047,1043.614 475.663,1026.049 800.065,1204.336 	"/>
	<polygon clip-path="url(#SVGID_2_)" fill="#333E92" points="475.663,1026.049 290.921,1156.711 430.414,1212.854 	"/>
	<polygon clip-path="url(#SVGID_2_)" fill="#363F95" points="800.065,1204.336 475.663,1026.049 430.414,1212.854 	"/>
	<polygon clip-path="url(#SVGID_2_)" fill="#1D347F" points="-76.9,1164.864 42.629,1093.384 -388.575,1153.396 	"/>
	<polygon clip-path="url(#SVGID_2_)" fill="#3B4198" points="1477.815,1096.974 878.047,1043.614 800.065,1204.336 	"/>
	<polygon clip-path="url(#SVGID_2_)" fill="#2E3C8F" points="290.921,1156.711 73.447,1135.193 -76.9,1164.864 	"/>
	<polygon clip-path="url(#SVGID_2_)" fill="#333D91" points="290.921,1156.711 -76.9,1164.864 430.414,1212.854 	"/>
	<rect x="-366.866" y="-190.479" clip-path="url(#SVGID_2_)" fill="#B82A2D" width="2376.657" height="1170.433"/>
	<polygon clip-path="url(#SVGID_2_)" fill="#BA3322" points="11.811,-95.504 97.029,237.66 240.139,104.3 	"/>
	<polygon clip-path="url(#SVGID_2_)" fill="#BE4122" points="240.139,104.3 97.029,237.66 240.139,227.973 	"/>
	<polygon clip-path="url(#SVGID_2_)" fill="#901E23" points="26.41,665.8 -196.554,1167.009 367.945,903.794 	"/>
	<polygon clip-path="url(#SVGID_2_)" fill="#831B20" points="-196.554,1167.009 278.195,1167.009 367.945,903.794 	"/>
	<polygon clip-path="url(#SVGID_2_)" fill="#B53623" points="182.247,-171.635 11.811,-95.504 240.139,104.3 	"/>
	<polygon clip-path="url(#SVGID_2_)" fill="#AD3324" points="182.247,-171.635 240.139,104.3 410.576,-28.865 	"/>
	<polygon clip-path="url(#SVGID_2_)" fill="#B32224" points="97.029,237.66 97.029,513.595 240.139,227.973 	"/>
	<polygon clip-path="url(#SVGID_2_)" fill="#A62025" points="26.41,665.8 367.945,903.794 425.048,856.279 	"/>
	<polygon clip-path="url(#SVGID_2_)" fill="#A12025" points="367.945,903.794 278.195,1167.009 567.203,1046.676 	"/>
	<polygon clip-path="url(#SVGID_2_)" fill="#DB3A15" points="240.139,227.973 97.029,513.595 524.74,275.6 	"/>
	<polygon clip-path="url(#SVGID_2_)" fill="#AF2C24" points="240.139,104.3 240.139,227.973 524.74,275.6 	"/>
	<polygon clip-path="url(#SVGID_2_)" fill="#A62025" points="97.029,513.595 26.41,665.8 425.048,856.279 	"/>
	<polygon clip-path="url(#SVGID_2_)" fill="#B21E24" points="425.048,856.279 367.945,903.794 567.203,1046.676 	"/>
	<polygon clip-path="url(#SVGID_2_)" fill="#AD2E24" points="410.576,-28.865 240.139,104.3 524.74,275.6 	"/>
	<polygon clip-path="url(#SVGID_2_)" fill="#A52025" points="567.203,1046.676 278.195,1167.009 751.155,1167.009 	"/>
	<polygon clip-path="url(#SVGID_2_)" fill="#B31E24" points="97.029,513.595 425.048,856.279 822.731,722.836 	"/>
	<polygon clip-path="url(#SVGID_2_)" fill="#A52E24" points="410.576,-28.865 524.74,275.6 793.785,-38.552 	"/>
	<polygon clip-path="url(#SVGID_2_)" fill="#A32D25" points="793.785,-38.552 524.74,275.6 850.847,-0.362 	"/>
	<polygon clip-path="url(#SVGID_2_)" fill="#B32224" points="524.74,275.6 97.029,513.595 822.731,722.836 	"/>
	<polygon clip-path="url(#SVGID_2_)" fill="#B41E23" points="567.203,1046.676 751.155,1167.009 950.538,1094.274 	"/>
	<polygon clip-path="url(#SVGID_2_)" fill="#C11A20" points="425.048,856.279 567.203,1046.676 822.731,722.836 	"/>
	<polygon clip-path="url(#SVGID_2_)" fill="#BB1C22" points="950.538,1094.274 751.155,1167.009 1050.229,1141.538 	"/>
	<polygon clip-path="url(#SVGID_2_)" fill="#B82123" points="524.74,275.6 822.731,722.836 1021.157,608.85 	"/>
	<polygon clip-path="url(#SVGID_2_)" fill="#C51C1F" points="822.731,722.836 950.538,1094.274 1092.732,789.557 	"/>
	<polygon clip-path="url(#SVGID_2_)" fill="#C31C20" points="1092.732,722.836 822.731,722.836 1092.732,789.557 	"/>
	<polygon clip-path="url(#SVGID_2_)" fill="#C51D1F" points="1021.157,608.85 822.731,722.836 1092.732,722.836 	"/>
	<polygon clip-path="url(#SVGID_2_)" fill="#C92D1D" points="850.847,-0.362 524.74,275.6 1063.787,323.227 	"/>
	<polygon clip-path="url(#SVGID_2_)" fill="#B12624" points="524.74,275.6 1021.157,608.85 1063.787,323.227 	"/>
	<polygon clip-path="url(#SVGID_2_)" fill="#C31920" points="822.731,722.836 567.203,1046.676 950.538,1094.274 	"/>
	<polygon clip-path="url(#SVGID_2_)" fill="#B92222" points="1063.787,323.227 1021.157,608.85 1320.231,551.534 	"/>
	<polygon clip-path="url(#SVGID_2_)" fill="#BD1F21" points="1021.157,608.85 1092.732,722.836 1320.231,551.534 	"/>
	<polygon clip-path="url(#SVGID_2_)" fill="#C41C20" points="1092.732,722.836 1092.732,789.557 1391.807,808.651 	"/>
	<polygon clip-path="url(#SVGID_2_)" fill="#BA2422" points="850.847,-0.362 1063.787,323.227 1320.231,256.505 	"/>
	<polygon clip-path="url(#SVGID_2_)" fill="#C11A20" points="1092.732,722.836 1391.807,808.651 1419.796,713.428 	"/>
	<polygon clip-path="url(#SVGID_2_)" fill="#BE1E21" points="1320.231,551.534 1092.732,722.836 1419.796,713.428 	"/>
	<polygon clip-path="url(#SVGID_2_)" fill="#C4191F" points="950.538,1094.274 1050.229,1141.538 1092.732,789.557 	"/>
	<polygon clip-path="url(#SVGID_2_)" fill="#B91D22" points="1419.796,580.316 1320.231,551.534 1419.796,713.428 	"/>
	<polygon clip-path="url(#SVGID_2_)" fill="#BF3520" points="1050.229,-114.6 850.847,-0.362 1320.231,256.505 	"/>
	<polygon clip-path="url(#SVGID_2_)" fill="#CB361C" points="1050.229,-114.6 1320.231,256.505 1462.427,47.265 	"/>
	<polygon clip-path="url(#SVGID_2_)" fill="#CA321D" points="1320.231,256.505 1434.395,266.165 1462.427,47.265 	"/>
	<polygon clip-path="url(#SVGID_2_)" fill="#B41E23" points="1391.807,808.651 1220.539,1167.009 1448.869,1094.274 	"/>
	<polygon clip-path="url(#SVGID_2_)" fill="#BD2821" points="1320.231,256.505 1320.231,551.534 1434.395,266.165 	"/>
	<polygon clip-path="url(#SVGID_2_)" fill="#C21920" points="1092.732,789.557 1220.539,1167.009 1391.807,808.651 	"/>
	<polygon clip-path="url(#SVGID_2_)" fill="#BD2621" points="1320.231,256.505 1063.787,323.227 1320.231,551.534 	"/>
	<polygon clip-path="url(#SVGID_2_)" fill="#C31920" points="1092.732,789.557 1050.229,1141.538 1220.539,1167.009 	"/>
	<polygon clip-path="url(#SVGID_2_)" fill="#B41E23" points="1419.796,713.428 1391.807,808.651 1576.592,780.148 	"/>
	<polygon clip-path="url(#SVGID_2_)" fill="#B11F24" points="1391.807,808.651 1448.869,1094.274 1576.592,913.232 	"/>
	<polygon clip-path="url(#SVGID_2_)" fill="#AE1F24" points="1391.807,808.651 1576.592,913.232 1576.592,780.148 	"/>
	<polygon clip-path="url(#SVGID_2_)" fill="#B71D23" points="1050.229,1141.538 751.155,1167.009 1220.539,1167.009 	"/>
	<polygon clip-path="url(#SVGID_2_)" fill="#BC2421" points="1320.231,551.534 1419.796,580.316 1434.395,266.165 	"/>
	<polygon clip-path="url(#SVGID_2_)" fill="#D33619" points="1462.427,47.265 1434.395,266.165 1717.955,142.518 	"/>
	<polygon clip-path="url(#SVGID_2_)" fill="#851C20" points="1448.869,1094.274 1694.374,1167.009 1717.955,1132.132 	"/>
	<polygon clip-path="url(#SVGID_2_)" fill="#A92025" points="1419.796,713.428 1576.592,780.148 1704.397,741.931 	"/>
	<polygon clip-path="url(#SVGID_2_)" fill="#B01F24" points="1419.796,580.316 1419.796,713.428 1704.397,741.931 	"/>
	<polygon clip-path="url(#SVGID_2_)" fill="#971F24" points="1448.869,1094.274 1220.539,1167.009 1694.374,1167.009 	"/>
	<polygon clip-path="url(#SVGID_2_)" fill="#951E23" points="1576.592,780.148 1576.592,913.232 1775.016,913.232 	"/>
	<polygon clip-path="url(#SVGID_2_)" fill="#E84E1B" points="1462.427,47.265 1760.543,-57.286 1775.016,-209.575 	"/>
	<polygon clip-path="url(#SVGID_2_)" fill="#941E23" points="1576.592,913.232 1448.869,1094.274 1717.955,1132.132 	"/>
	<polygon clip-path="url(#SVGID_2_)" fill="#891D21" points="1576.592,913.232 1717.955,1132.132 1775.016,913.232 	"/>
	<polygon clip-path="url(#SVGID_2_)" fill="#911E23" points="1704.397,741.931 1576.592,780.148 1775.016,913.232 	"/>
	<polygon clip-path="url(#SVGID_2_)" fill="#E04216" points="1462.427,47.265 1717.955,142.518 1760.543,-57.286 	"/>
	<polygon clip-path="url(#SVGID_2_)" fill="#BA2422" points="1434.395,266.165 1419.796,580.316 1918.252,485.092 	"/>
	<polygon clip-path="url(#SVGID_2_)" fill="#A42025" points="1419.796,580.316 1704.397,741.931 1918.252,485.092 	"/>
	<polygon clip-path="url(#SVGID_2_)" fill="#C92D1D" points="1717.955,142.518 1434.395,266.165 1918.252,485.092 	"/>
	<polygon clip-path="url(#SVGID_2_)" fill="#BF2921" points="1717.955,142.518 1918.252,485.092 2045.019,351.73 	"/>
	<polygon clip-path="url(#SVGID_2_)" fill="#D2321A" points="1717.955,142.518 2045.019,351.73 2097.547,208.878 	"/>
	<polygon clip-path="url(#SVGID_2_)" fill="#E14217" points="1760.543,-57.286 1717.955,142.518 2097.547,208.878 	"/>
	<polygon clip-path="url(#SVGID_2_)" fill="#841B20" points="1918.252,485.092 1704.397,741.931 2097.547,523.031 	"/>
	<polygon clip-path="url(#SVGID_2_)" fill="#901E23" points="2045.019,351.73 1918.252,485.092 2097.547,523.031 	"/>
	<polygon clip-path="url(#SVGID_2_)" fill="#B22624" points="2097.547,208.878 2045.019,351.73 2097.547,523.031 	"/>
	<polygon clip-path="url(#SVGID_2_)" fill="#6B1418" points="2097.547,523.031 1704.397,741.931 2097.547,840.135 	"/>
	<polygon clip-path="url(#SVGID_2_)" fill="#77171C" points="1704.397,741.931 1775.016,913.232 2097.547,840.135 	"/>
	<polygon clip-path="url(#SVGID_2_)" fill="#590D11" points="2097.547,840.135 1775.016,913.232 2097.547,1154.288 	"/>
	<polygon clip-path="url(#SVGID_2_)" fill="#691317" points="1775.016,913.232 1717.955,1132.132 2097.547,1154.288 	"/>
	<polygon clip-path="url(#SVGID_2_)" fill="#4F0A0D" points="2097.547,1154.288 1717.955,1132.132 2097.547,1167.009 	"/>
	<polygon clip-path="url(#SVGID_2_)" fill="#651216" points="1717.955,1132.132 1694.374,1167.009 2097.547,1167.009 	"/>
	<polygon clip-path="url(#SVGID_2_)" fill="#EA5225" points="1760.543,-57.286 2097.547,208.878 2097.547,-108.225 	"/>
</g>
</svg>
