<?xml version="1.0" encoding="utf-8"?>
<!-- Generator: Adobe Illustrator 16.0.0, SVG Export Plug-In . SVG Version: 6.00 Build 0)  -->
<!DOCTYPE svg PUBLIC "-//W3C//DTD SVG 1.1//EN" "http://www.w3.org/Graphics/SVG/1.1/DTD/svg11.dtd">
<svg version="1.1" id="Layer_1" xmlns="http://www.w3.org/2000/svg" xmlns:xlink="http://www.w3.org/1999/xlink" x="0px" y="0px"
	 width="1200px" height="300px" viewBox="0 0 1200 300" enable-background="new 0 0 1200 300" xml:space="preserve">
<g>
	<g>
		<path fill="none" d="M269.22,265.893h9.875l-0.017-6.817C275.897,261.48,272.61,263.76,269.22,265.893z"/>
		<path fill="none" d="M89.469,239.39l-1.104,1.426v18.564l5.09,6.513H120.4C108.808,258.6,98.386,249.653,89.469,239.39z"/>
		<path stroke="#FFFFFF" stroke-width="7.8482" stroke-miterlimit="10" d="M279.08,259.073l-0.134-60.211H143.161h135.785
			l-0.076-34.396H94.841H92.82l-5.051,6.771v19.428l5.051,8.194h31.215H92.82l-5.051-8.194V171.24l5.051-6.771h-7.747
			c0,0-10.48-2.995-10.48-13.475v-0.898c0-10.479,10.48-13.473,10.48-13.473h142.315c-15.611-2.086-27.641-15.095-27.641-30.842
			c0-17.195,14.344-31.139,32.039-31.139c3.953,0,7.735,0.7,11.23,1.973c5.361-12.639,14.127-30.622,24.099-40.596
			c-9.972,9.974-18.735,27.957-24.099,40.596c12.15,4.425,20.806,15.813,20.806,29.166c0,15.747-12.027,28.756-27.636,30.842h51.438
			l1.709-0.069c0,0,10.479,2.995,10.479,13.475v89.758c21.063-24.069,33.811-55.453,33.811-89.782
			c0-75.811-62.148-137.266-138.813-137.266C118.145,12.736,55.995,74.191,55.995,150c0,34.145,12.611,65.372,33.476,89.39
			l4.251-5.495h-0.9l-5.051-8.198v-19.424l5.051-6.772l-5.051,6.772v19.424l5.051,8.198h0.9h30.313h154.911h-154.91H93.721
			l-4.251,5.495c8.917,10.264,19.338,19.21,30.931,26.503h148.82C272.61,263.76,275.897,261.48,279.08,259.073z"/>
		<path stroke="#FFFFFF" stroke-width="7.8482" stroke-miterlimit="10" d="M269.22,265.893H120.4
			c0.041,0.026,0.082,0.051,0.124,0.076h148.573C269.137,265.943,269.179,265.919,269.22,265.893z"/>
		<path fill="#FF303F" stroke="#FFFFFF" stroke-width="7.8482" stroke-miterlimit="10" d="M263.825,105.781
			c0-13.354-8.653-24.741-20.806-29.166c-1.884,4.439-3.349,8.219-4.297,10.759c0.845,0.32,1.447,1.134,1.447,2.092
			c0,1.241-1.008,2.246-2.246,2.246c-1.24,0-2.243-1.005-2.243-2.246c0-1.239,1.003-2.245,2.243-2.245
			c0.281,0,0.551,0.059,0.799,0.153c0.948-2.54,2.413-6.317,4.297-10.759c-3.495-1.271-7.277-1.973-11.23-1.973
			c-17.693,0-32.039,13.941-32.039,31.139c0,15.747,12.027,28.756,27.641,30.842h8.801
			C251.798,134.535,263.825,121.528,263.825,105.781z"/>
		<path fill="#EC1C24" stroke="#FFFFFF" stroke-width="7.8482" stroke-miterlimit="10" d="M235.681,89.464
			c0,1.241,1.003,2.246,2.243,2.246c1.238,0,2.246-1.005,2.246-2.246c0-0.958-0.604-1.771-1.447-2.092
			c-0.813,2.17-1.247,3.438-1.247,3.438s0.437-1.27,1.247-3.438c-0.248-0.097-0.518-0.153-0.799-0.153
			C236.684,87.219,235.681,88.225,235.681,89.464z"/>
		<path stroke="#FFFFFF" stroke-width="7.8482" stroke-miterlimit="10" d="M289.337,136.552l-1.709,0.069H236.19
			c-1.439,0.19-2.906,0.3-4.4,0.3s-2.961-0.107-4.398-0.3H85.074c0,0-10.479,2.992-10.479,13.473v0.898
			c0,10.479,10.479,13.475,10.479,13.475h7.747h2.021H278.87l0.076,34.396l0,0l0,0l0.134,60.211
			c7.562-5.72,14.513-12.183,20.734-19.291v-89.756C299.814,139.547,289.337,136.552,289.337,136.552z"/>
		<path fill="#EC1C24" stroke="#FFFFFF" stroke-width="7.8482" stroke-miterlimit="10" d="M236.189,136.621h-8.801
			c1.438,0.19,2.905,0.3,4.398,0.3C233.283,136.921,234.75,136.813,236.189,136.621z"/>
		<path stroke="#FFFFFF" stroke-width="7.8482" stroke-miterlimit="10" d="M269.097,265.969H120.523
			c21.479,13.482,46.959,21.295,74.286,21.295S247.615,279.451,269.097,265.969z"/>
	</g>
	<g>
		<path d="M452.114,196.191V68.658h15.897v123.646c0,10.364,3.501,19.021,10.509,25.968c7.005,6.948,15.396,10.42,25.171,10.42
			s18.195-3.472,25.26-10.42c6.478-6.475,9.95-14.31,10.421-23.493h-0.176V68.658h15.898v126.119
			c-0.475,13.543-5.479,25.082-15.019,34.621c-10.01,10.126-22.141,15.189-36.387,15.189c-14.249,0-26.38-5.063-36.386-15.189
			c-2.711-2.711-5.066-5.532-7.066-8.479c-2.005,2.947-4.415,5.77-7.243,8.479c-10.01,10.126-22.14,15.189-36.387,15.189
			c-14.25,0-26.379-5.063-36.386-15.189c-9.539-9.54-14.548-21.078-15.017-34.621V68.658h15.897v126.119h-0.178
			c0.47,9.186,4.003,17.02,10.599,23.493c6.945,6.948,15.307,10.42,25.083,10.42c9.772,0,18.194-3.472,25.259-10.42
			C447.874,212.264,451.288,204.906,452.114,196.191z"/>
		<path d="M637.584,209.615c14.952,13.661,32.734,20.492,53.345,20.492c22.138,0,41.038-7.833,56.703-23.493
			c1.998-2.001,3.885-4.063,5.649-6.185l16.781,6.008c-3.064,4.238-6.535,8.302-10.422,12.188
			c-18.962,18.96-41.863,28.438-68.714,28.438c-26.732,0-49.578-9.478-68.534-28.438c-18.96-18.958-28.438-41.864-28.438-68.713
			c0-26.729,9.479-49.574,28.438-68.535c18.956-18.959,41.802-28.439,68.534-28.439c22.963,0,43.041,6.89,60.234,20.667
			c2.824,2.357,5.651,4.946,8.479,7.772c1.061,1.06,2.059,2.119,3.004,3.179l-12.014,12.011L637.584,209.615z M738.974,85.792
			c-13.777-10.6-29.794-15.898-48.047-15.898c-22.021,0-40.862,7.804-56.524,23.405c-15.663,15.604-23.492,34.474-23.492,56.612
			c0,18.253,5.304,34.268,15.897,48.046L738.974,85.792z"/>
		<path d="M845.487,209.615c14.953,13.661,32.735,20.492,53.344,20.492c22.142,0,41.038-7.833,56.7-23.493
			c2-2.001,3.885-4.063,5.654-6.185l16.78,6.008c-3.063,4.238-6.536,8.302-10.423,12.188c-18.961,18.96-41.861,28.438-68.714,28.438
			c-26.73,0-49.575-9.478-68.533-28.438c-18.961-18.958-28.438-41.864-28.438-68.713c0-26.729,9.479-49.574,28.438-68.535
			c18.958-18.959,41.803-28.439,68.533-28.439c22.965,0,43.039,6.89,60.233,20.667c2.828,2.357,5.654,4.946,8.479,7.772
			c1.062,1.06,2.059,2.119,3.005,3.179l-12.015,12.012L845.487,209.615z M946.875,85.792c-13.772-10.6-29.788-15.898-48.044-15.898
			c-22.021,0-40.861,7.804-56.521,23.405c-15.663,15.604-23.492,34.474-23.492,56.612c0,18.253,5.299,34.268,15.896,48.046
			L946.875,85.792z"/>
		<path d="M1109.914,84.555h-89.556V68.658h116.934l-89.729,157.561h96.443v15.898H1020.36L1109.914,84.555z"/>
	</g>
</g>
</svg>
