<?xml version="1.0" encoding="utf-8"?>
<!-- Generator: Adobe Illustrator 16.0.0, SVG Export Plug-In . SVG Version: 6.00 Build 0)  -->
<!DOCTYPE svg PUBLIC "-//W3C//DTD SVG 1.1//EN" "http://www.w3.org/Graphics/SVG/1.1/DTD/svg11.dtd">
<svg version="1.1" id="Layer_1" xmlns="http://www.w3.org/2000/svg" xmlns:xlink="http://www.w3.org/1999/xlink" x="0px" y="0px"
	 width="300px" height="300px" viewBox="0 0 300 300" enable-background="new 0 0 300 300" xml:space="preserve">
<g>
	<path fill="none" d="M228.747,272.647h10.45l-0.015-7.217C235.813,267.978,232.334,270.39,228.747,272.647z"/>
	<path fill="none" d="M38.52,244.6l-1.167,1.509v19.646l5.387,6.893h28.513C58.985,264.929,47.956,255.461,38.52,244.6z"/>
	<path stroke="#FFFFFF" stroke-width="8.3056" stroke-miterlimit="10" d="M239.182,265.431l-0.142-63.721H95.341H239.04l-0.081-36.4
		H44.205h-2.139l-5.345,7.168v20.558l5.345,8.674h33.035H42.066l-5.345-8.674v-20.558l5.345-7.168h-8.198
		c0,0-11.091-3.17-11.091-14.26v-0.951c0-11.089,11.091-14.258,11.091-14.258h150.609c-16.521-2.208-29.25-15.972-29.25-32.637
		c0-18.2,15.18-32.954,33.906-32.954c4.184,0,8.186,0.741,11.885,2.088c5.676-13.375,14.951-32.409,25.503-42.962
		c-10.553,10.553-19.827,29.586-25.503,42.962c12.861,4.681,22.019,16.732,22.019,30.866c0,16.665-12.729,30.43-29.247,32.637
		h54.437l1.809-0.073c0,0,11.088,3.169,11.088,14.26v94.987c22.293-25.472,35.781-58.685,35.781-95.015
		C296.905,69.773,231.133,4.736,150,4.736C68.867,4.736,3.095,69.773,3.095,150c0,36.135,13.346,69.182,35.425,94.6l4.5-5.815
		h-0.953l-5.345-8.676v-20.556l5.345-7.169l-5.345,7.169v20.556l5.345,8.676h0.953h32.082H239.04H75.101H43.019l-4.5,5.815
		c9.437,10.861,20.466,20.329,32.733,28.048h157.494C232.334,270.39,235.813,267.978,239.182,265.431z"/>
	<path stroke="#FFFFFF" stroke-width="8.3056" stroke-miterlimit="10" d="M228.747,272.647H71.253
		c0.043,0.027,0.087,0.054,0.131,0.08h157.232C228.659,272.701,228.703,272.675,228.747,272.647z"/>
	<path fill="#FF303F" stroke="#FFFFFF" stroke-width="8.3056" stroke-miterlimit="10" d="M223.038,103.204
		c0-14.134-9.158-26.185-22.019-30.866c-1.994,4.698-3.542,8.695-4.547,11.384c0.894,0.341,1.534,1.2,1.534,2.213
		c0,1.313-1.066,2.377-2.377,2.377c-1.314,0-2.376-1.063-2.376-2.377c0-1.312,1.062-2.376,2.376-2.376
		c0.298,0,0.581,0.062,0.843,0.163c1.006-2.688,2.554-6.686,4.547-11.384c-3.699-1.347-7.701-2.088-11.885-2.088
		c-18.726,0-33.906,14.754-33.906,32.954c0,16.665,12.728,30.43,29.25,32.637h9.313
		C210.309,133.634,223.038,119.869,223.038,103.204z"/>
	<path fill="#EC1C24" stroke="#FFFFFF" stroke-width="8.3056" stroke-miterlimit="10" d="M193.252,85.936
		c0,1.313,1.062,2.377,2.376,2.377c1.311,0,2.377-1.063,2.377-2.377c0-1.014-0.64-1.873-1.534-2.213
		c-0.857,2.296-1.319,3.64-1.319,3.64s0.462-1.343,1.319-3.64c-0.262-0.101-0.545-0.163-0.843-0.163
		C194.314,83.56,193.252,84.624,193.252,85.936z"/>
	<path stroke="#FFFFFF" stroke-width="8.3056" stroke-miterlimit="10" d="M250.036,135.768l-1.809,0.073h-54.437
		c-1.523,0.204-3.076,0.317-4.657,0.317c-1.581,0-3.134-0.114-4.657-0.317H33.868c0,0-11.091,3.168-11.091,14.258v0.951
		c0,11.09,11.091,14.26,11.091,14.26h8.198h2.139h194.754l0.081,36.4l0,0l0,0l0.142,63.721c8-6.054,15.358-12.894,21.942-20.416
		v-94.987C261.124,138.938,250.036,135.768,250.036,135.768z"/>
	<path fill="#EC1C24" stroke="#FFFFFF" stroke-width="8.3056" stroke-miterlimit="10" d="M193.791,135.841h-9.313
		c1.522,0.204,3.076,0.317,4.657,0.317C190.715,136.159,192.268,136.045,193.791,135.841z"/>
	<path stroke="#FFFFFF" stroke-width="8.3056" stroke-miterlimit="10" d="M228.616,272.728H71.384
		c22.732,14.269,49.696,22.536,78.616,22.536C178.919,295.264,205.883,286.996,228.616,272.728z"/>
</g>
</svg>
